<?xml version="1.0" encoding="iso-8859-1"?>
<!-- Uploaded to: SVG Repo, www.svgrepo.com, Generator: SVG Repo Mixer Tools -->
<svg fill="#000000" height="800px" width="800px" version="1.1" id="Layer_1" xmlns="http://www.w3.org/2000/svg" xmlns:xlink="http://www.w3.org/1999/xlink" 
	 viewBox="0 0 512 512" xml:space="preserve">
<g>
	<g>
		<path d="M492.384,234.114l-53.492-51.604c-5.663-5.463-13.417-8.306-21.265-7.792c-7.852,0.511-15.17,4.331-20.077,10.482
			l-1.58,1.98c-14.946-18.3-33.595-33.601-54.449-44.587c-24.707-13.017-52.617-19.985-80.712-20.153
			c-18.114-0.092-35.849,2.616-52.738,7.907l-10.746-19.417c17.266-5.67,35.473-9.005,54.245-9.752
			c8.958-0.356,15.974-7.675,15.974-16.661V18.698c0-5.128-2.035-9.91-5.731-13.468c-3.7-3.561-8.557-5.413-13.694-5.216
			c-47.141,1.811-93.677,14.895-134.576,37.839c-39.482,22.148-74.011,53.578-99.853,90.892c-2.921,4.216-3.969,9.307-2.956,14.335
			c1.015,5.031,3.957,9.319,8.284,12.075l43.524,27.724c0.002,0.001,0.004,0.003,0.006,0.004l11.983,7.632
			c2.794,1.78,5.909,2.633,8.985,2.633c5.269,0,10.423-2.507,13.652-7.158c12.762-18.388,28.169-34.136,45.539-46.917l10.928,19.749
			c-5.87,4.54-11.504,9.476-16.866,14.806c-34.017,33.814-52.752,78.635-52.752,126.206v78.51c0,32.183-13.269,63.472-36.406,85.843
			c-4.777,4.62-6.733,11.244-5.23,17.718c1.502,6.474,6.176,11.558,12.499,13.601l18.761,6.062
			c21.43,6.924,44.004,10.435,66.556,10.434c10.371,0,20.741-0.743,30.988-2.238c30.144-4.397,59.426-15.326,85.105-31.704
			l20.905,20.807c7.02,6.987,16.34,10.835,26.244,10.835h27.821c7.893,0,15.054-4.354,18.686-11.363
			c3.632-7.009,3.062-15.368-1.49-21.818l-63.99-90.679c-2.66-3.771-3.597-8.514-2.566-13.012l5.989-26.149
			c1.232-5.374,6.608-8.758,11.984-7.539l48.243,10.924c25.273,5.723,51.508-0.112,71.976-16.006l69.84-54.239
			c6.941-5.391,11.193-13.516,11.663-22.293C502.068,248.75,498.71,240.217,492.384,234.114z M248.734,15.928
			c1.044-0.037,1.721,0.469,2.04,0.777c0.317,0.305,0.849,0.969,0.849,1.993v43.787c-11.048,0.365-21.95,1.512-32.658,3.359
			l-8.672-45.782C222.982,17.816,235.833,16.424,248.734,15.928z M194.693,23.27l8.677,45.809
			c-18.745,4.554-36.747,11.364-53.661,20.238l-23.762-40.098C147.558,37.633,170.739,28.906,194.693,23.27z M112.144,57.163
			l23.722,40.031c-14.037,8.629-27.186,18.747-39.225,30.24L60.443,97.763C76.062,82.29,93.449,68.614,112.144,57.163z
			 M64.508,165.247l-36.93-23.524c-0.865-0.551-1.141-1.359-1.228-1.791c-0.087-0.431-0.146-1.28,0.436-2.121
			c6.907-9.974,14.491-19.484,22.629-28.497l36.046,29.545C77.933,147.085,70.917,155.88,64.508,165.247z M84.09,176.911
			c-0.216,0.31-0.664,0.386-0.999,0.173l-2.389-1.521l-2.467-1.572l-0.291-0.186c39.742-57.786,103.692-92.909,173.681-95.392v6.103
			c0,0.398-0.306,0.734-0.683,0.748c-32.944,1.31-65.524,10.334-94.218,26.095C128.031,127.121,102.914,149.788,84.09,176.911z
			 M192.935,135.878c-9.067,3.805-17.827,8.39-26.197,13.729l-10.777-19.475c8.404-5.179,17.191-9.705,26.295-13.553
			L192.935,135.878z M168.891,494.005c-30.129,4.396-61.372,1.771-90.349-7.592l-18.761-6.061c-1.324-0.428-1.747-1.467-1.882-2.049
			s-0.212-1.702,0.788-2.669c26.221-25.354,41.26-60.816,41.26-97.291v-78.51c0-43.299,17.066-84.109,48.054-114.911
			c30.229-30.05,69.885-46.561,111.764-46.561c0.317,0,0.637,0.001,0.953,0.003c25.917,0.154,50.607,6.318,73.385,18.317
			c19.985,10.528,37.739,25.422,51.68,43.27l-39.609,49.642c-5.955,7.463-15.546,11.381-25.021,10.226l-109.183-13.324
			c-8.245-1.005-16.612,1.496-22.953,6.865c-6.34,5.369-10.186,13.208-10.553,21.508l-4.215,95.533
			c-0.699,15.826,5.34,31.312,16.569,42.487l53.882,53.628C221.649,480.64,195.64,490.102,168.891,494.005z M480.166,267.244
			l-69.84,54.239c-16.69,12.961-38.083,17.72-58.691,13.052l-48.243-10.923c-13.918-3.15-27.837,5.602-31.023,19.515l-5.989,26.149
			c-2.038,8.902-0.187,18.287,5.078,25.749l63.99,90.677c1.62,2.296,0.793,4.478,0.362,5.309c-0.431,0.831-1.736,2.766-4.547,2.766
			h-27.821c-5.664,0-10.995-2.201-15.009-6.197l-86.384-85.978c-8.06-8.022-12.395-19.137-11.893-30.498l4.215-95.533
			c0.174-3.939,1.926-7.51,4.934-10.057c2.56-2.168,5.701-3.317,8.992-3.317c0.576,0,1.157,0.035,1.741,0.106l109.183,13.323
			c14.925,1.821,30.021-4.348,39.398-16.101l51.379-64.395c2.149-2.693,5.225-4.299,8.663-4.523
			c3.446-0.221,6.696,0.971,9.176,3.362l53.492,51.603c2.999,2.894,4.592,6.94,4.368,11.1
			C485.472,260.836,483.457,264.688,480.166,267.244z"/>
	</g>
</g>
</svg>