<?xml version="1.0" encoding="utf-8"?>

<!DOCTYPE svg PUBLIC "-//W3C//DTD SVG 1.1//EN" "http://www.w3.org/Graphics/SVG/1.1/DTD/svg11.dtd">
<!-- Uploaded to: SVG Repo, www.svgrepo.com, Generator: SVG Repo Mixer Tools -->
<svg height="800px" width="800px" version="1.1" id="_x32_" xmlns="http://www.w3.org/2000/svg" xmlns:xlink="http://www.w3.org/1999/xlink" 
	 viewBox="0 0 512 512"  xml:space="preserve">
<style type="text/css">
	.st0{fill:#000000;}
</style>
<g>
	<path class="st0" d="M194.206,426.858c3.828,0,6.927-3.105,6.927-6.934s-3.098-6.927-6.927-6.927s-6.926,3.098-6.926,6.927
		S190.378,426.858,194.206,426.858z"/>
	<path class="st0" d="M435.131,457.02c0-0.048,0.007-0.102,0.007-0.149c0.02-17.946-4.572-32.429-12.075-43.718
		c-7.522-11.324-17.675-19.245-28.383-25.116c-3.538-5.385-9.524-9.822-25.454-11.392c-5.182-0.514-12.5-11.438-16.932-12.926
		c-9.774-3.288-17.634-2.266-23.499,0.995c-1.238-0.589-2.435-1.211-3.626-1.847c4.282-3.132,8.699-7.704,13.299-13.955
		c15.044-20.583,31.325-58.836,31.345-112.51c0-36.426,0-54.636,0-63.741c0-9.098,0-9.098,0-9.098l-0.311-0.006l0.866-4.992
		l-8.732-1.529c-0.589-6.968-2.834-14.516-6.772-22.356c-6.892-13.596-18.777-27.849-35.925-38.807
		c-13.272-8.469-29.743-14.848-49.211-17.31l3.937-73.745c-10.83-6.041-21.66-4.688-21.66-4.688s-10.836-1.353-21.666,4.688
		l3.937,73.826c-27.816,3.524-49.502,15.05-64.614,29.141c-9.111,8.489-15.923,17.817-20.523,26.895
		c-3.944,7.84-6.182,15.403-6.771,22.37l-8.726,1.516l0.866,4.992h-0.318c0,0,0,0,0,72.845c0,40.876,9.491,72.865,20.625,94.829
		c5.58,10.992,11.533,19.488,17.114,25.468c1.021,1.096,2.023,2.009,3.017,2.935c-3.382,3.7-6.473,8.436-8.456,10.41
		c-11.1-2.462-25.041,3.714-30.676,9.558c-11.702,4.16-23.98,9.91-34.498,18.933c-7.224,6.21-13.569,14.002-18.034,23.689
		c-4.464,9.68-7.028,21.186-7.021,34.647c0,3.118,0.135,6.352,0.419,9.686c0.21,2.348,1.096,4.248,2.138,5.811
		c1.996,2.929,4.64,5.107,7.948,7.34c5.797,3.835,13.826,7.583,24.108,11.262c30.764,10.972,81.713,21.017,144.824,21.031
		c49.13,0,90.791-6.129,121.38-13.989c7.434-0.5,13.393-1.515,17.438-2.868c23.756-7.914,39.592-1.583,41.174-30.088
		C435.842,462.431,435.591,459.738,435.131,457.02z M355.888,236.401c0,38.698-9.004,68.556-19.13,88.524
		c-5.046,9.985-10.404,17.493-14.868,22.255c-2.219,2.388-4.228,4.079-5.669,5.019c-0.514,0.338-0.906,0.555-1.224,0.704
		c-0.433-2.158-0.636-5.371-0.738-8.99c-0.203-5.73-0.209-12.365-1.562-18.487c-0.366-1.596-0.839-3.179-1.462-4.708
		c0,0,0-0.108,0-0.162h-0.088c-0.555-1.333-1.19-2.632-2.036-3.856c-1.82-2.672-4.654-4.958-8.144-5.979
		c-1.049-0.339-1.752-0.9-2.516-2.26c-0.724-1.333-1.238-3.443-1.231-5.926c-0.007-3.004,0.737-6.501,2.198-9.68
		c1.461-3.199,3.612-6.054,6.304-8.07l-0.04,0.027c9.652-7.102,15.463-16.721,18.785-26.469c3.321-9.76,4.268-19.731,4.275-28.16
		c0-7.258-0.704-13.326-1.298-17.222h28.444C355.888,219.794,355.888,227.547,355.888,236.401z M213.803,288.635
		c-2.056-4.498-5.168-8.746-9.429-11.946l-0.034-0.034c-7.671-5.662-12.359-13.271-15.206-21.578
		c-2.842-8.3-3.734-17.228-3.734-24.893c0-5.655,0.481-10.606,0.954-14.124c0.169-1.258,0.332-2.246,0.474-3.098h65.181h65.174
		c0.562,3.254,1.428,9.592,1.428,17.222c0,7.664-0.893,16.593-3.734,24.893c-2.854,8.307-7.535,15.923-15.206,21.578l-0.034,0.034
		c-4.261,3.2-7.366,7.441-9.436,11.946c-2.057,4.518-3.105,9.314-3.112,13.9c0.007,3.774,0.71,7.44,2.422,10.688
		c1.684,3.234,4.654,6.061,8.55,7.211c0.101,0.027,0.162,0.081,0.264,0.122h-1.022h-0.007c0,12.67,0,21.903,0,29.296
		c0.007,4.742,1.948,8.895,4.478,12.21c3.849,5.005,9.152,8.78,14.8,12.027c0.805,0.453,1.65,0.798,2.469,1.231
		c-0.156,0.366-0.379,0.697-0.528,1.062c-12.67,31.67-96.595,34.836-96.595,34.836c-0.149,1.163-0.345,2.252-0.548,3.348
		c-2.003-10.228-9.666-18.325-19.562-21.166c-2.111-5.263-5.175-12.926-8.226-20.557c1.19-1.021,2.354-2.07,3.41-3.206
		c4.937-5.33,8.157-12.237,8.137-19.785c0-7.333,0-16.492,0-28.992c0.27-0.142,0.487-0.324,0.825-0.426
		c3.889-1.15,6.859-3.977,8.536-7.211c1.725-3.247,2.415-6.913,2.428-10.688C216.908,297.949,215.866,293.153,213.803,288.635z
		 M161.576,140.97c5.729-11.344,16.038-23.81,30.994-33.341c11.371-7.258,25.447-12.852,42.453-15.146l0.216,4.093h16.769h16.769
		l0.21-3.978c24.42,3.302,42.886,13.346,55.866,25.393c7.908,7.346,13.766,15.423,17.581,22.979
		c2.489,4.898,4.011,9.531,4.816,13.549L252.88,137.98l-0.237,1.346l-0.236-1.346l-95.662,16.586
		C157.55,150.542,159.072,145.888,161.576,140.97z M148.121,172.66c0-3.024,0-4.971,0-6.318l104.509-18.114l103.257,18.088
		c0,3.923,0,13.42,0,36.514h-103.88H148.121C148.121,187.69,148.121,178.376,148.121,172.66z M174.346,337.183
		c-12.541-18.832-26.232-53.121-26.225-100.782c0-8.854,0-16.607,0-23.439h28.444c-0.595,3.903-1.298,9.964-1.298,17.222
		c0.007,8.428,0.948,18.399,4.275,28.16c3.311,9.734,9.125,19.339,18.748,26.442h-0.01l0.02,0.014l-0.004-0.007
		c0.01,0.007,0.021,0.02,0.031,0.027l-0.027-0.02c2.678,2.016,4.843,4.863,6.291,8.05c1.462,3.186,2.198,6.683,2.192,9.686
		c0.007,2.482-0.507,4.593-1.231,5.926c-0.758,1.36-1.468,1.921-2.51,2.26c-2.922,0.859-5.405,2.598-7.184,4.721
		c-1.313,1.583-2.232,3.321-2.983,5.114h-1.671c0,1.975,0,3.727,0,5.547c-0.149,0.724-0.311,1.448-0.426,2.178
		c-1.049,6.846-0.846,14.164-1.204,19.759c-0.109,1.901-0.305,3.564-0.548,4.843c-0.684-0.318-1.867-1.008-3.389-2.307
		C182.559,347.978,178.5,343.446,174.346,337.183z M194.206,398.549c11.804,0.02,21.355,9.578,21.375,21.375
		c-0.02,11.804-9.571,21.355-21.375,21.382c-11.804-0.027-21.355-9.578-21.375-21.382
		C172.852,408.127,182.403,398.569,194.206,398.549z M99.898,471.231c-3.795-1.948-6.588-3.808-8.137-5.175
		c-0.663-0.568-1.035-1.014-1.218-1.265c-0.217-2.746-0.338-5.398-0.338-7.92c0.02-15.639,3.842-27.065,9.754-36.02
		c8.414-12.744,21.693-20.753,35.729-26.307c-2.456,2.462-5.087,5.364-7.786,8.78c-10.938,13.846-22.721,35.919-26.604,68.523
		l10.059,1.204c3.686-30.744,14.618-50.894,24.5-63.449c3.497-4.438,6.839-7.86,9.72-10.492c3.037,2.854,6.304,5.784,9.429,8.516
		c-3.071,2.732-7.874,7.644-12.927,15.328c-7.826,11.878-16.085,30.453-19.406,57.28
		C113.177,477.211,105.458,474.099,99.898,471.231z M255.701,498.072c-50.056,0-92.278-6.541-121.826-14.536
		c-0.466-0.135-0.906-0.264-1.366-0.386c3.01-26.3,10.904-43.758,18.041-54.628c3.686-5.614,7.17-9.483,9.673-11.912
		c1.082-1.056,1.928-1.793,2.584-2.328c1.516,1.266,2.848,2.368,3.93,3.26c-0.068,0.799-0.244,1.57-0.244,2.382
		c0,15.308,12.413,27.714,27.714,27.714c3.666,0,7.157-0.751,10.37-2.05c40.14,27.693,82.579,42.074,117.672,48.466
		C302.26,496.536,279.911,498.072,255.701,498.072z"/>
	<path class="st0" d="M190.777,299.316c0-3.504-2.834-6.339-6.338-6.339c-3.497,0-6.332,2.834-6.332,6.339
		c0,3.497,2.834,6.331,6.332,6.331C187.943,305.647,190.777,302.813,190.777,299.316z"/>
	<path class="st0" d="M317.453,292.977c-3.497,0-6.332,2.834-6.332,6.339c0,3.497,2.834,6.331,6.332,6.331
		c3.504,0,6.338-2.834,6.338-6.331C323.791,295.812,320.956,292.977,317.453,292.977z"/>
</g>
</svg>